<svg width="20px" height="20px" viewBox="0 0 18 12" fill="none" xmlns="http://www.w3.org/2000/svg">
  <path d="M5.26839 11.6998H1.46839C1.19922 11.6998 0.973595 11.6088 0.791512 11.4267C0.609429 11.2446 0.518387 11.019 0.518387 10.7498C0.518387 10.4806 0.609429 10.255 0.791512 10.0729C0.973595 9.89085 1.19922 9.7998 1.46839 9.7998H5.26839C5.53755 9.7998 5.76318 9.89085 5.94526 10.0729C6.12735 10.255 6.21839 10.4806 6.21839 10.7498C6.21839 11.019 6.12735 11.2446 5.94526 11.4267C5.76318 11.6088 5.53755 11.6998 5.26839 11.6998ZM16.6684 2.1998H1.46839C1.19922 2.1998 0.973595 2.10876 0.791512 1.92668C0.609429 1.7446 0.518387 1.51897 0.518387 1.2498C0.518387 0.980638 0.609429 0.755013 0.791512 0.57293C0.973595 0.390846 1.19922 0.299805 1.46839 0.299805H16.6684C16.9376 0.299805 17.1632 0.390846 17.3453 0.57293C17.5273 0.755013 17.6184 0.980638 17.6184 1.2498C17.6184 1.51897 17.5273 1.7446 17.3453 1.92668C17.1632 2.10876 16.9376 2.1998 16.6684 2.1998ZM10.9684 6.94981H1.46839C1.19922 6.94981 0.973595 6.85876 0.791512 6.67668C0.609429 6.4946 0.518387 6.26897 0.518387 5.9998C0.518387 5.73064 0.609429 5.50501 0.791512 5.32293C0.973595 5.14085 1.19922 5.0498 1.46839 5.0498H10.9684C11.2376 5.0498 11.4632 5.14085 11.6453 5.32293C11.8273 5.50501 11.9184 5.73064 11.9184 5.9998C11.9184 6.26897 11.8273 6.4946 11.6453 6.67668C11.4632 6.85876 11.2376 6.94981 10.9684 6.94981Z" fill="currentColor"/>
</svg>